<svg xmlns="http://www.w3.org/2000/svg" xmlns:xlink="http://www.w3.org/1999/xlink" style="display:none">

    <symbol id="down-chevron" viewBox="0 0 24 24" fill="none" stroke="currentColor" stroke-width="2">
      <path stroke-linecap="round" stroke-linejoin="round" d="M19 9l-7 7-7-7" />
    </symbol>

<symbol
  id="log-in"
  viewBox="0 0 24 24"
  fill="none"
  stroke="currentColor"
  stroke-width="2"
  stroke-linecap="round"
  stroke-linejoin="round"
>
  <path d="M15 3h4a2 2 0 012 2v14a2 2 0 01-2 2h-4" />
  <polyline points="10 17 15 12 10 7" />
  <line x1="15" y1="12" x2="3" y2="12" />
</symbol>

<symbol id="listing" viewBox="0 0 231 231">
  <g>
    <rect width="181" x="50" y="164.5" height="33"/>
    <rect width="181" x="50" y="99.5" height="33"/>
    <rect width="181" x="50" y="32.5" height="33"/>
    <rect width="33" y="165.5" height="33"/>
    <rect width="33" y="99.5" height="33"/>
    <rect width="33" y="32.5" height="33"/>
  </g>
</symbol>

<symbol id="m-glass" viewBox="0 0 183.792 183.792">
<path d="M54.734,9.053C39.12,18.067,27.95,32.624,23.284,50.039c-4.667,17.415-2.271,35.606,6.743,51.22
	c12.023,20.823,34.441,33.759,58.508,33.759c7.599,0,15.139-1.308,22.287-3.818l30.364,52.592l21.65-12.5l-30.359-52.583
	c10.255-8.774,17.638-20.411,21.207-33.73c4.666-17.415,2.27-35.605-6.744-51.22C134.918,12.936,112.499,0,88.433,0
	C76.645,0,64.992,3.13,54.734,9.053z M125.29,46.259c5.676,9.831,7.184,21.285,4.246,32.25c-2.938,10.965-9.971,20.13-19.802,25.806
	c-6.462,3.731-13.793,5.703-21.199,5.703c-15.163,0-29.286-8.146-36.857-21.259c-5.676-9.831-7.184-21.284-4.245-32.25
	c2.938-10.965,9.971-20.13,19.802-25.807C73.696,26.972,81.027,25,88.433,25C103.597,25,117.719,33.146,125.29,46.259z"/>

</symbol>

</svg>