<svg xmlns="http://www.w3.org/2000/svg" xmlns:xlink="http://www.w3.org/1999/xlink" style="display:none;">

    <symbol id="down-chevron" viewBox="0 0 24 24" fill="none" stroke="currentColor" stroke-width="2">
          <path stroke-linecap="round" stroke-linejoin="round" d="M19 9l-7 7-7-7" />
    </symbol>
    
    <symbol
        id="log-in"
        viewBox="0 0 24 24"
        fill="none"
        stroke="currentColor"
        stroke-width="2"
        stroke-linecap="round"
        stroke-linejoin="round"
    >
        <path d="M15 3h4a2 2 0 012 2v14a2 2 0 01-2 2h-4" />
        <polyline points="10 17 15 12 10 7" />
        <line x1="15" y1="12" x2="3" y2="12" />
    </symbol>

    <symbol id="listing" viewBox="0 0 231 231">
        <g>
            <rect width="181" x="50" y="164.5" height="33"/>
            <rect width="181" x="50" y="99.5" height="33"/>
            <rect width="181" x="50" y="32.5" height="33"/>
            <rect width="33" y="165.5" height="33"/>
            <rect width="33" y="99.5" height="33"/>
            <rect width="33" y="32.5" height="33"/>
        </g>
    </symbol>

    <symbol id="m-glass" viewBox="0 0 183.792 183.792">
        <path d="M54.734,9.053C39.12,18.067,27.95,32.624,23.284,50.039c-4.667,17.415-2.271,35.606,6.743,51.22
            c12.023,20.823,34.441,33.759,58.508,33.759c7.599,0,15.139-1.308,22.287-3.818l30.364,52.592l21.65-12.5l-30.359-52.583
            c10.255-8.774,17.638-20.411,21.207-33.73c4.666-17.415,2.27-35.605-6.744-51.22C134.918,12.936,112.499,0,88.433,0
            C76.645,0,64.992,3.13,54.734,9.053z M125.29,46.259c5.676,9.831,7.184,21.285,4.246,32.25c-2.938,10.965-9.971,20.13-19.802,25.806
            c-6.462,3.731-13.793,5.703-21.199,5.703c-15.163,0-29.286-8.146-36.857-21.259c-5.676-9.831-7.184-21.284-4.245-32.25
            c2.938-10.965,9.971-20.13,19.802-25.807C73.696,26.972,81.027,25,88.433,25C103.597,25,117.719,33.146,125.29,46.259z"/>

    </symbol>

    <symbol id="pizza" viewBox="0 0 297 297">
        <g>
            <path d="M269.841,50.261C237.43,17.85,194.336,0,148.5,0C102.663,0,59.57,17.85,27.159,50.261
                c-3.004,3.005-3.753,7.591-1.86,11.396l114.35,229.86c1.671,3.359,5.1,5.483,8.852,5.483s7.181-2.124,8.852-5.483l114.35-229.86
                C273.594,57.852,272.845,53.265,269.841,50.261z M148.5,19.773c38.193,0,74.235,14.008,102.256,39.593l-7.65,15.378
                c-26.119-23.188-59.386-35.869-94.605-35.869c-35.221,0-68.488,12.681-94.606,35.87l-7.65-15.38
                C74.265,33.781,110.307,19.773,148.5,19.773z M90.714,147.303c-0.275-0.084-0.551-0.148-0.827-0.207l-14.165-28.474
                c1.817-5.673,5.693-10.337,10.965-13.138c5.362-2.854,11.516-3.444,17.327-1.67c5.808,1.774,10.574,5.705,13.426,11.067
                c2.85,5.363,3.442,11.516,1.663,17.327c-1.774,5.808-5.704,10.576-11.065,13.428C102.674,148.487,96.521,149.079,90.714,147.303z
                M148.5,264.917l-48.221-96.932c5.886-0.402,11.676-2.038,17.041-4.89c10.027-5.332,17.375-14.249,20.691-25.105
                c3.322-10.859,2.217-22.361-3.112-32.389c-5.332-10.028-14.248-17.379-25.107-20.697c-10.858-3.318-22.36-2.211-32.389,3.121
                c-4.668,2.482-8.746,5.749-12.116,9.62l-2.217-4.456c23.042-22.286,53.293-34.541,85.431-34.541
                c32.137,0,62.387,12.254,85.43,34.54l-31.993,64.31c-6.707-11.268-19.007-18.839-33.046-18.839
                c-21.192,0-38.434,17.241-38.434,38.434s17.241,38.434,38.434,38.434c1.455,0,2.889-0.089,4.302-0.247L148.5,264.917z
                M168.892,195.754c-10.29,0-18.66-8.371-18.66-18.661c0-10.29,8.37-18.661,18.66-18.661c10.29,0,18.661,8.371,18.661,18.661
                C187.553,187.383,179.182,195.754,168.892,195.754z"/>
            <path d="M190.448,114.754c1.931,1.931,4.461,2.896,6.991,2.896c2.53,0,5.059-0.966,6.991-2.896c3.86-3.86,3.86-10.121,0-13.981
                l-16.314-16.313c-3.861-3.859-10.12-3.859-13.981,0c-3.861,3.861-3.861,10.122,0,13.982L190.448,114.754z"/>
        </g>

    </symbol>

    <symbol id="hotel" viewBox="0 0 512 512">
    <g>
        <g>
            <g>
                <path d="M393.65,72.743h-46.809V16.624C346.841,7.443,339.398,0,330.217,0H181.783c-9.181,0-16.624,7.443-16.624,16.624v56.119
                    H118.35c-9.181,0-16.624,7.443-16.624,16.624v406.009c0,9.181,7.443,16.624,16.624,16.624h275.3
                    c9.181,0,16.624-7.443,16.624-16.624V89.367C410.274,80.186,402.832,72.743,393.65,72.743z M198.407,33.248h115.185v79.849
                    H198.407V33.248z M290.521,478.752h-69.04v-39.908h69.04V478.752z M323.768,478.752V422.22c0-9.181-7.443-16.624-16.624-16.624
                    H204.855c-9.181,0-16.624,7.443-16.624,16.624v56.532h-53.258V105.991h30.185v23.732c0,9.181,7.443,16.624,16.624,16.624h148.434
                    c9.181,0,16.624-7.443,16.624-16.624v-23.732h30.185v372.761H323.768z"/>
                <path d="M193.937,161.038c-9.181,0-16.624,7.443-16.624,16.624v21.057c0,9.181,7.443,16.624,16.624,16.624
                    s16.624-7.443,16.624-16.624v-21.057C210.561,168.481,203.118,161.038,193.937,161.038z"/>
                <path d="M256,161.038c-9.181,0-16.624,7.443-16.624,16.624v21.057c0,9.181,7.443,16.624,16.624,16.624
                    s16.624-7.443,16.624-16.624v-21.057C272.624,168.481,265.181,161.038,256,161.038z"/>
                <path d="M318.063,161.038c-9.181,0-16.624,7.443-16.624,16.624v21.057c0,9.181,7.443,16.624,16.624,16.624
                    c9.181,0,16.624-7.443,16.624-16.624v-21.057C334.688,168.481,327.244,161.038,318.063,161.038z"/>
                <path d="M193.937,243.05c-9.181,0-16.624,7.443-16.624,16.624v21.057c0,9.181,7.443,16.624,16.624,16.624
                    s16.624-7.443,16.624-16.624v-21.057C210.561,250.494,203.118,243.05,193.937,243.05z"/>
                <path d="M256,243.05c-9.181,0-16.624,7.443-16.624,16.624v21.057c0,9.181,7.443,16.624,16.624,16.624s16.624-7.443,16.624-16.624
                    v-21.057C272.624,250.494,265.181,243.05,256,243.05z"/>
                <path d="M318.063,243.05c-9.181,0-16.624,7.443-16.624,16.624v21.057c0,9.181,7.443,16.624,16.624,16.624
                    c9.181,0,16.624-7.443,16.624-16.624v-21.057C334.688,250.494,327.244,243.05,318.063,243.05z"/>
                <path d="M193.937,325.063c-9.181,0-16.624,7.443-16.624,16.624v21.057c0,9.181,7.443,16.624,16.624,16.624
                    s16.624-7.443,16.624-16.624v-21.057C210.561,332.506,203.118,325.063,193.937,325.063z"/>
                <path d="M256,325.063c-9.181,0-16.624,7.443-16.624,16.624v21.057c0,9.181,7.443,16.624,16.624,16.624
                    s16.624-7.443,16.624-16.624v-21.057C272.624,332.506,265.181,325.063,256,325.063z"/>
                <path d="M318.063,325.063c-9.181,0-16.624,7.443-16.624,16.624v21.057c0,9.181,7.443,16.624,16.624,16.624
                    c9.181,0,16.624-7.443,16.624-16.624v-21.057C334.688,332.506,327.244,325.063,318.063,325.063z"/>
                <path d="M275.304,39.867c-9,0-16.312,7.157-16.598,16.088h-5.414c-0.286-8.93-7.597-16.088-16.598-16.088
                    c-9.181,0-16.624,7.443-16.624,16.624v34.473h0.001c0,9.181,7.443,16.624,16.624,16.624c9.181,0,16.624-7.443,16.624-16.624
                    v-1.761h5.36v1.761c0,9.181,7.443,16.624,16.624,16.624c9.181,0,16.624-7.443,16.624-16.624V56.491
                    C291.928,47.31,284.485,39.867,275.304,39.867z"/>
            </g>
        </g>
    </g>
    </symbol>

    <symbol id="car" viewBox="0 0 431.789 431.789">
    <g>
        <path d="M422.438,151.93H390.77c-2.412,0-4.73,0.932-6.471,2.6l-6.76,6.476c-11.395-26.366-27.742-52.439-49.822-79.432
            c-11.936-14.585-29.586-22.949-48.43-22.949H152.501c-18.846,0-36.497,8.365-48.426,22.95
            c-22.777,27.842-38.799,53.287-49.924,79.338l-6.66-6.383c-1.741-1.668-4.06-2.6-6.472-2.6H9.353c-5.166,0-9.353,4.187-9.353,9.353
            v21.651c0,4.937,3.838,9.022,8.765,9.334l32.549,2.05c-4.918,14.371-8.758,35.786-8.758,65.987
            c0,26.205,5.234,43.428,14.343,54.578v50.449c0,4.326,3.507,7.832,7.833,7.832h36.029c4.328,0,7.836-3.506,7.836-7.832v-31.328
            h234.596v31.328c0,4.326,3.508,7.832,7.834,7.832h36.029c4.326,0,7.834-3.506,7.834-7.832v-50.449
            c9.107-11.15,14.344-28.373,14.344-54.578c0-30.201-3.84-51.616-8.758-65.987l32.549-2.05c4.926-0.312,8.764-4.397,8.764-9.334
            v-21.651C431.789,156.117,427.604,151.93,422.438,151.93z M130.806,103.442c5.346-6.534,13.254-10.283,21.695-10.283h126.786
            c8.441,0,16.352,3.749,21.697,10.283c15.447,18.883,27.646,36.954,37.074,54.955l-244.543,0.046
            C102.737,140.842,115.005,122.756,130.806,103.442z M104.157,295.693c-17.933,0-32.469-5.857-32.469-20.066
            c0-14.208,5.274-25.729,23.206-25.729s41.73,11.521,41.73,25.729S122.087,295.693,104.157,295.693z M249.93,292.732h-68.069
            c-10.262,0-18.61-8.348-18.61-18.609c0-2.878,2.334-5.212,5.214-5.212h94.863c2.879,0,5.211,2.334,5.211,5.212
            C268.539,284.385,260.191,292.732,249.93,292.732z M327.633,295.693c-17.932,0-32.469-5.857-32.469-20.066
            c0-14.208,23.801-25.729,41.73-25.729c17.932,0,23.207,11.521,23.207,25.729S345.566,295.693,327.633,295.693z"/>
    </g>
    </symbol>

    <symbol id="shopping" viewBox="0 0 231.835 231.835" >
        <path d="M205.917,46.261h-43.556V11.157L151.204,0H80.632L69.474,11.157v35.104H25.918v185.574h180V46.261z
	 M140.047,46.261H91.789V22.315h48.258V46.261z"/>

    </symbol>

    <symbol id="services" viewBox="0 0 1024 1024">
        <path d="M512.5 390.6c-29.9 0-57.9 11.6-79.1 32.8-21.1 21.2-32.8 49.2-32.8 79.1 0 29.9 11.7 57.9 32.8 79.1 21.2 21.1 49.2 32.8 79.1 32.8 29.9 0 57.9-11.7 79.1-32.8 21.1-21.2 32.8-49.2 32.8-79.1 0-29.9-11.7-57.9-32.8-79.1a110.96 110.96 0 0 0-79.1-32.8zm412.3 235.5l-65.4-55.9c3.1-19 4.7-38.4 4.7-57.7s-1.6-38.8-4.7-57.7l65.4-55.9a32.03 32.03 0 0 0 9.3-35.2l-.9-2.6a442.5 442.5 0 0 0-79.6-137.7l-1.8-2.1a32.12 32.12 0 0 0-35.1-9.5l-81.2 28.9c-30-24.6-63.4-44-99.6-57.5l-15.7-84.9a32.05 32.05 0 0 0-25.8-25.7l-2.7-.5c-52-9.4-106.8-9.4-158.8 0l-2.7.5a32.05 32.05 0 0 0-25.8 25.7l-15.8 85.3a353.44 353.44 0 0 0-98.9 57.3l-81.8-29.1a32 32 0 0 0-35.1 9.5l-1.8 2.1a445.93 445.93 0 0 0-79.6 137.7l-.9 2.6c-4.5 12.5-.8 26.5 9.3 35.2l66.2 56.5c-3.1 18.8-4.6 38-4.6 57 0 19.2 1.5 38.4 4.6 57l-66 56.5a32.03 32.03 0 0 0-9.3 35.2l.9 2.6c18.1 50.3 44.8 96.8 79.6 137.7l1.8 2.1a32.12 32.12 0 0 0 35.1 9.5l81.8-29.1c29.8 24.5 63 43.9 98.9 57.3l15.8 85.3a32.05 32.05 0 0 0 25.8 25.7l2.7.5a448.27 448.27 0 0 0 158.8 0l2.7-.5a32.05 32.05 0 0 0 25.8-25.7l15.7-84.9c36.2-13.6 69.6-32.9 99.6-57.5l81.2 28.9a32 32 0 0 0 35.1-9.5l1.8-2.1c34.8-41.1 61.5-87.4 79.6-137.7l.9-2.6c4.3-12.4.6-26.3-9.5-35zm-412.3 52.2c-97.1 0-175.8-78.7-175.8-175.8s78.7-175.8 175.8-175.8 175.8 78.7 175.8 175.8-78.7 175.8-175.8 175.8z"/>
    </symbol>

    <symbol id="medical" viewBox="0 0 234 234" style="enable-background:new 0 0 234 234;" xml:space="preserve">
        <path d="M171,56v-0.5C171,25.448,146.552,1,116.5,1S62,25.448,62,55.5V56H0v77h13v84h14v16h61v-16h58v16h61v-16h14v-84h13V56H171z
	 M92,55.5C92,41.99,102.99,31,116.5,31S141,41.99,141,55.5V56H92V55.5z M153,152h-21v21h-30v-21H81v-30h21v-21h30v21h21V152z"/>

    </symbol>

    <symbol id="job" viewBox="0 0 444.892 444.892">
	<path id="XMLID_503_" d="M440.498,173.103c5.858-5.857,5.858-15.355,0-21.213l-22.511-22.511c-5.091-5.091-13.084-5.846-19.038-1.8
		l-47.332,32.17l31.975-47.652c3.993-5.951,3.219-13.897-1.85-18.964l-48.83-48.83c-4.508-4.508-11.372-5.675-17.114-2.908
		l-8.443,4.065l4.043-8.97c2.563-5.685,1.341-12.361-3.068-16.771L293.002,4.393c-5.857-5.857-15.355-5.857-21.213,0
		l-119.06,119.059l168.71,168.71L440.498,173.103z"/>
	<path id="XMLID_1199_" d="M130.56,145.622l-34.466,34.466c-2.813,2.813-4.394,6.628-4.394,10.606s1.58,7.794,4.394,10.606
		l32.694,32.694c6.299,6.299,9.354,14.992,8.382,23.849c-0.971,8.851-5.843,16.677-13.366,21.473
		C27.736,340.554,18.781,349.51,15.839,352.453c-21.119,21.118-21.119,55.48,0,76.6c21.14,21.14,55.504,21.098,76.6,0
		c2.944-2.943,11.902-11.902,73.136-107.965c4.784-7.505,12.607-12.366,21.462-13.339c8.883-0.969,17.575,2.071,23.859,8.354
		l32.694,32.694c5.857,5.857,15.356,5.857,21.213,0l34.467-34.467L130.56,145.622z M70.05,404.825c-8.28,8.28-21.704,8.28-29.983,0
		c-8.28-8.28-8.28-21.704,0-29.983c8.28-8.28,21.704-8.28,29.983,0C78.33,383.121,78.33,396.545,70.05,404.825z"/>
    </symbol>

    <symbol id="check" viewBox="0 0 311.539 311.539">
        <g>
            <polygon points="214.696,98.019 132.761,179.955 95.716,142.908 67.43,171.193 132.761,236.523 242.981,126.305 	"/>
            <path d="M155.77,0C69.74,0,0,69.74,0,155.77s69.74,155.77,155.77,155.77s155.77-69.74,155.77-155.77S241.799,0,155.77,0z
                M155.77,271.539C91.784,271.539,40,219.761,40,155.77C40,91.784,91.778,40,155.77,40c63.986,0,115.77,51.778,115.77,115.77
                C271.539,219.755,219.761,271.539,155.77,271.539z"/>
        </g>
    </symbol>

<symbol id="location-pin" viewBox="0 0 264.018 264.018">
<g>
	<path d="M132.009,0c-42.66,0-77.366,34.706-77.366,77.366c0,11.634,2.52,22.815,7.488,33.24c0.1,0.223,0.205,0.442,0.317,0.661
		l58.454,113.179c2.146,4.154,6.431,6.764,11.106,6.764c4.676,0,8.961-2.609,11.106-6.764l58.438-113.148
		c0.101-0.195,0.195-0.392,0.285-0.591c5.001-10.455,7.536-21.67,7.536-33.341C209.375,34.706,174.669,0,132.009,0z
		 M132.009,117.861c-22.329,0-40.495-18.166-40.495-40.495c0-22.328,18.166-40.494,40.495-40.494s40.495,18.166,40.495,40.494
		C172.504,99.695,154.338,117.861,132.009,117.861z"/>
	<path d="M161.81,249.018h-59.602c-4.143,0-7.5,3.357-7.5,7.5c0,4.143,3.357,7.5,7.5,7.5h59.602c4.143,0,7.5-3.357,7.5-7.5
		C169.31,252.375,165.952,249.018,161.81,249.018z"/>
</g>
</symbol>
</svg>
